<svg id="visual" viewBox="0 0 600 900" width="600" height="900" xmlns="http://www.w3.org/2000/svg" xmlns:xlink="http://www.w3.org/1999/xlink" version="1.1">
  <path d="M521 900L517 886.3C513 872.7 505 845.3 504 818C503 790.7 509 763.3 518 736.2C527 709 539 682 539 654.8C539 627.7 527 600.3 530 573C533 545.7 551 518.3 552 491C553 463.7 537 436.3 524 409C511 381.7 501 354.3 501 327C501 299.7 511 272.3 519 245.2C527 218 533 191 541 163.8C549 136.7 559 109.3 560 82C561 54.7 553 27.3 549 13.7L545 0L600 0L600 13.7C600 27.3 600 54.7 600 82C600 109.3 600 136.7 600 163.8C600 191 600 218 600 245.2C600 272.3 600 299.7 600 327C600 354.3 600 381.7 600 409C600 436.3 600 463.7 600 491C600 518.3 600 545.7 600 573C600 600.3 600 627.7 600 654.8C600 682 600 709 600 736.2C600 763.3 600 790.7 600 818C600 845.3 600 872.7 600 886.3L600 900Z" fill="#af3333"></path>
  <path d="M359 900L365 886.3C371 872.7 383 845.3 383 818C383 790.7 371 763.3 374 736.2C377 709 395 682 414 654.8C433 627.7 453 600.3 444 573C435 545.7 397 518.3 375 491C353 463.7 347 436.3 358 409C369 381.7 397 354.3 401 327C405 299.7 385 272.3 382 245.2C379 218 393 191 404 163.8C415 136.7 423 109.3 432 82C441 54.7 451 27.3 456 13.7L461 0L504 0L507 13.7C510 27.3 516 54.7 513 82C510 109.3 498 136.7 496 163.8C494 191 502 218 497 245.2C492 272.3 474 299.7 465 327C456 354.3 456 381.7 464 409C472 436.3 488 463.7 496 491C504 518.3 504 545.7 501 573C498 600.3 492 627.7 488 654.8C484 682 482 709 474 736.2C466 763.3 452 790.7 449 818C446 845.3 454 872.7 458 886.3L462 900Z" fill="#e5591f"></path>
  <path d="M293 900L302 886.3C311 872.7 329 845.3 333 818C337 790.7 327 763.3 334 736.2C341 709 365 682 380 654.8C395 627.7 401 600.3 391 573C381 545.7 355 518.3 338 491C321 463.7 313 436.3 324 409C335 381.7 365 354.3 364 327C363 299.7 331 272.3 326 245.2C321 218 343 191 354 163.8C365 136.7 365 109.3 370 82C375 54.7 385 27.3 390 13.7L395 0L462 0L457 13.7C452 27.3 442 54.7 433 82C424 109.3 416 136.7 405 163.8C394 191 380 218 383 245.2C386 272.3 406 299.7 402 327C398 354.3 370 381.7 359 409C348 436.3 354 463.7 376 491C398 518.3 436 545.7 445 573C454 600.3 434 627.7 415 654.8C396 682 378 709 375 736.2C372 763.3 384 790.7 384 818C384 845.3 372 872.7 366 886.3L360 900Z" fill="#f66c03"></path>
  <path d="M461 900L457 886.3C453 872.7 445 845.3 448 818C451 790.7 465 763.3 473 736.2C481 709 483 682 487 654.8C491 627.7 497 600.3 500 573C503 545.7 503 518.3 495 491C487 463.7 471 436.3 463 409C455 381.7 455 354.3 464 327C473 299.7 491 272.3 496 245.2C501 218 493 191 495 163.8C497 136.7 509 109.3 512 82C515 54.7 509 27.3 506 13.7L503 0L546 0L550 13.7C554 27.3 562 54.7 561 82C560 109.3 550 136.7 542 163.8C534 191 528 218 520 245.2C512 272.3 502 299.7 502 327C502 354.3 512 381.7 525 409C538 436.3 554 463.7 553 491C552 518.3 534 545.7 531 573C528 600.3 540 627.7 540 654.8C540 682 528 709 519 736.2C510 763.3 504 790.7 505 818C506 845.3 514 872.7 518 886.3L522 900Z" fill="#cb442c"></path>
  <path d="M257 900L262 886.3C267 872.7 277 845.3 283 818C289 790.7 291 763.3 305 736.2C319 709 345 682 356 654.8C367 627.7 363 600.3 353 573C343 545.7 327 518.3 311 491C295 463.7 279 436.3 287 409C295 381.7 327 354.3 328 327C329 299.7 299 272.3 291 245.2C283 218 297 191 302 163.8C307 136.7 303 109.3 315 82C327 54.7 355 27.3 369 13.7L383 0L396 0L391 13.7C386 27.3 376 54.7 371 82C366 109.3 366 136.7 355 163.8C344 191 322 218 327 245.2C332 272.3 364 299.7 365 327C366 354.3 336 381.7 325 409C314 436.3 322 463.7 339 491C356 518.3 382 545.7 392 573C402 600.3 396 627.7 381 654.8C366 682 342 709 335 736.2C328 763.3 338 790.7 334 818C330 845.3 312 872.7 303 886.3L294 900Z" fill="#f66c03"></path>
  <path d="M215 900L222 886.3C229 872.7 243 845.3 248 818C253 790.7 249 763.3 261 736.2C273 709 301 682 307 654.8C313 627.7 297 600.3 279 573C261 545.7 241 518.3 232 491C223 463.7 225 436.3 236 409C247 381.7 267 354.3 265 327C263 299.7 239 272.3 231 245.2C223 218 231 191 237 163.8C243 136.7 247 109.3 266 82C285 54.7 319 27.3 336 13.7L353 0L384 0L370 13.7C356 27.3 328 54.7 316 82C304 109.3 308 136.7 303 163.8C298 191 284 218 292 245.2C300 272.3 330 299.7 329 327C328 354.3 296 381.7 288 409C280 436.3 296 463.7 312 491C328 518.3 344 545.7 354 573C364 600.3 368 627.7 357 654.8C346 682 320 709 306 736.2C292 763.3 290 790.7 284 818C278 845.3 268 872.7 263 886.3L258 900Z" fill="#e5591f"></path>
  <path d="M149 900L142 886.3C135 872.7 121 845.3 125 818C129 790.7 151 763.3 180 736.2C209 709 245 682 237 654.8C229 627.7 177 600.3 155 573C133 545.7 141 518.3 127 491C113 463.7 77 436.3 75 409C73 381.7 105 354.3 127 327C149 299.7 161 272.3 170 245.2C179 218 185 191 180 163.8C175 136.7 159 109.3 162 82C165 54.7 187 27.3 198 13.7L209 0L354 0L337 13.7C320 27.3 286 54.7 267 82C248 109.3 244 136.7 238 163.8C232 191 224 218 232 245.2C240 272.3 264 299.7 266 327C268 354.3 248 381.7 237 409C226 436.3 224 463.7 233 491C242 518.3 262 545.7 280 573C298 600.3 314 627.7 308 654.8C302 682 274 709 262 736.2C250 763.3 254 790.7 249 818C244 845.3 230 872.7 223 886.3L216 900Z" fill="#cb442c"></path>
  <path d="M0 900L0 886.3C0 872.7 0 845.3 0 818C0 790.7 0 763.3 0 736.2C0 709 0 682 0 654.8C0 627.7 0 600.3 0 573C0 545.7 0 518.3 0 491C0 463.7 0 436.3 0 409C0 381.7 0 354.3 0 327C0 299.7 0 272.3 0 245.2C0 218 0 191 0 163.8C0 136.7 0 109.3 0 82C0 54.7 0 27.3 0 13.7L0 0L210 0L199 13.7C188 27.3 166 54.7 163 82C160 109.3 176 136.7 181 163.8C186 191 180 218 171 245.2C162 272.3 150 299.7 128 327C106 354.3 74 381.7 76 409C78 436.3 114 463.7 128 491C142 518.3 134 545.7 156 573C178 600.3 230 627.7 238 654.8C246 682 210 709 181 736.2C152 763.3 130 790.7 126 818C122 845.3 136 872.7 143 886.3L150 900Z" fill="#af3333"></path>
</svg>